<?xml version="1.0" encoding="utf-8"?>
<!-- Generator: Adobe Illustrator 18.0.0, SVG Export Plug-In . SVG Version: 6.00 Build 0)  -->
<!DOCTYPE svg PUBLIC "-//W3C//DTD SVG 1.1//EN" "http://www.w3.org/Graphics/SVG/1.1/DTD/svg11.dtd">
<svg version="1.1" id="Layer_1" xmlns="http://www.w3.org/2000/svg" xmlns:xlink="http://www.w3.org/1999/xlink" x="0px" y="0px"
	 viewBox="0 0 500 500" enable-background="new 0 0 500 500" xml:space="preserve">
<g>
	<line fill="#B5AB50" x1="307.6" y1="221.7" x2="305.1" y2="223.3"/>
	<line fill="#B5AB50" x1="324.4" y1="315.1" x2="327" y2="318.4"/>
	<line fill="#B5AB50" x1="169.6" y1="285.6" x2="171.3" y2="288.1"/>
	<polygon fill="#B5AB50" points="372.4,225.9 393.5,225.9 393.5,230.9 465.8,230.9 465.8,214.1 393.5,214.1 393.5,219.1 369,219.1 
		343,249.4 52.6,249.4 52.6,256.2 345.5,256.2 	"/>
	<polygon fill="#B5AB50" points="357.3,195.6 393.5,195.6 393.5,200.6 465.8,200.6 465.8,183.8 393.5,183.8 393.5,188.8 
		354.7,188.8 327.8,219.1 52.6,219.1 52.6,225.9 331.2,225.9 	"/>
	<polygon fill="#B5AB50" points="465.8,321.8 465.8,305 393.5,305 393.5,310.9 380.8,310.9 353.9,283.9 52.6,283.9 52.6,289.8 
		349.7,289.8 376.6,315.9 393.5,315.9 393.5,321.8 	"/>
	<polygon fill="#B5AB50" points="465.8,352.1 465.8,335.3 393.5,335.3 393.5,340.3 360.6,340.3 334.5,313.4 52.6,313.4 52.6,320.1 
		332,320.1 358.1,347.1 393.5,347.1 393.5,352.1 	"/>
	<rect x="309.3" y="131.6" fill="#B5AB50" width="31.1" height="31.1"/>
	<rect x="143.5" y="112.2" fill="#B5AB50" width="31.1" height="31.1"/>
	<rect x="302.6" y="374" fill="#B5AB50" width="31.1" height="31.1"/>
	<rect x="115.7" y="357.2" fill="#B5AB50" width="31.1" height="31.1"/>
	<rect x="207.5" y="187.2" fill="#B5AB50" width="9.3" height="9.3"/>
	<rect x="187.3" y="164.4" fill="#B5AB50" width="9.3" height="9.3"/>
	<rect x="281.5" y="115.6" fill="#B5AB50" width="9.3" height="9.3"/>
	<rect x="241.1" y="338.6" fill="#B5AB50" width="9.3" height="9.3"/>
	<rect x="277.3" y="402.6" fill="#B5AB50" width="9.3" height="9.3"/>
	<rect x="144.3" y="328.5" fill="#B5AB50" width="9.3" height="9.3"/>
	<rect x="252.9" y="163.6" fill="#B5AB50" width="20.2" height="20.2"/>
	<rect x="113.2" y="158.5" fill="#B5AB50" width="20.2" height="20.2"/>
	<rect x="289.9" y="336.1" fill="#B5AB50" width="20.2" height="20.2"/>
	<rect x="227.7" y="380.7" fill="#B5AB50" width="20.2" height="20.2"/>
	<rect x="184.7" y="352.9" fill="#B5AB50" width="20.2" height="20.2"/>
	<rect x="157.8" y="404.3" fill="#B5AB50" width="20.2" height="20.2"/>
	<rect x="210" y="129.9" fill="#B5AB50" width="20.2" height="20.2"/>
	<rect x="167.1" y="187.2" fill="#B5AB50" width="20.2" height="20.2"/>
</g>
</svg>
