<?xml version="1.0" encoding="utf-8"?>
<!-- Generator: Adobe Illustrator 18.0.0, SVG Export Plug-In . SVG Version: 6.00 Build 0)  -->
<!DOCTYPE svg PUBLIC "-//W3C//DTD SVG 1.1//EN" "http://www.w3.org/Graphics/SVG/1.1/DTD/svg11.dtd">
<svg version="1.1" id="Layer_1" xmlns="http://www.w3.org/2000/svg" xmlns:xlink="http://www.w3.org/1999/xlink" x="0px" y="0px"
	 viewBox="0 0 500 500" enable-background="new 0 0 500 500" xml:space="preserve">
<g>
	<g>
		<path fill="#333333" d="M209.4,294.4v-123L325,232.9L209.4,294.4z M223,194.3v77.7l73.7-39.2L223,194.3z"/>
	</g>
	<g>
		<g>
			<path fill="#333333" d="M459.5,351.8H446V101.1c0-6.8-6.1-12.8-12.8-12.8H69.5c-6.8,0-15.5,6.1-15.5,10.1v253.5H40.5V98.4
				c0-14.2,17.6-23.7,29.1-23.7h363.7c14.2,0,26.4,12.2,26.4,26.4V351.8z"/>
		</g>
		<g>
			<path fill="#333333" d="M454.8,399.2H45.2c-21,0-38.5-18.3-38.5-39.2v-8.1h486.7v8.1C493.3,380.9,475.8,399.2,454.8,399.2z
				 M20.9,365.4c2.7,11.5,12.8,20.3,24.3,20.3h410.3c11.5,0,21.6-8.8,24.3-20.3H20.9z"/>
		</g>
		<g>
			<path fill="#333333" d="M432.5,365.4h-365V101.7h365V365.4z M81,351.8h338V115.3H81V351.8z"/>
		</g>
		<g>
			<rect x="243.2" y="88.2" fill="#333333" width="13.5" height="13.5"/>
		</g>
		<g>
			<rect x="209.4" y="365.4" fill="#333333" width="81.1" height="13.5"/>
		</g>
	</g>
</g>
</svg>
