<?xml version="1.0" encoding="utf-8"?>
<!-- Generator: Adobe Illustrator 18.0.0, SVG Export Plug-In . SVG Version: 6.00 Build 0)  -->
<!DOCTYPE svg PUBLIC "-//W3C//DTD SVG 1.1//EN" "http://www.w3.org/Graphics/SVG/1.1/DTD/svg11.dtd">
<svg version="1.1" id="Layer_1" xmlns="http://www.w3.org/2000/svg" xmlns:xlink="http://www.w3.org/1999/xlink" x="0px" y="0px"
	 viewBox="0 0 1280 800" enable-background="new 0 0 1280 800" xml:space="preserve">
<g>
	<g>
		<defs>
			<rect id="SVGID_1_" x="180.9" y="60.4" width="850.4" height="532.3"/>
		</defs>
		<clipPath id="SVGID_2_">
			<use xlink:href="#SVGID_1_"  overflow="visible"/>
		</clipPath>
		<g clip-path="url(#SVGID_2_)">
			<defs>
				<rect id="SVGID_3_" x="-263" y="66" width="1741" height="549"/>
			</defs>
			<clipPath id="SVGID_4_">
				<use xlink:href="#SVGID_3_"  overflow="visible"/>
			</clipPath>
			<g clip-path="url(#SVGID_4_)">
				
					<image overflow="visible" width="1900" height="600" xlink:href="../../../../../../Downloads/orchestra-4_pc-leah-nash_1900x600.jpg"  transform="matrix(0.9156 0 0 0.9156 -263.1136 65.3609)">
				</image>
			</g>
		</g>
	</g>
	<g id="PBcB7R.tif">
		
			<image overflow="visible" width="758" height="456" id="Layer_0_1_" xlink:href="F1697ADE8970BEF4.png"  transform="matrix(1.4378 0 0 1.4378 71.3682 33.1156)">
		</image>
	</g>
	<path fill="#17171B" d="M1144.6,740.3H581.3c-28.3,0-51.5-23.2-51.5-51.5V474.7c0-28.3,23.2-51.5,51.5-51.5h563.3
		c28.3,0,51.5,23.2,51.5,51.5v214.1C1196.1,717.2,1172.9,740.3,1144.6,740.3z"/>
	<g>
		<defs>
			<rect id="SVGID_5_" x="597.1" y="425.1" width="547.5" height="306.8"/>
		</defs>
		<clipPath id="SVGID_6_">
			<use xlink:href="#SVGID_5_"  overflow="visible"/>
		</clipPath>
		<g id="_x30_hLQF5.tif" clip-path="url(#SVGID_6_)">
			
				<image overflow="visible" width="1900" height="600" id="Layer_0" xlink:href="F1697ADE8970BEF5.png"  transform="matrix(0.5163 0 0 0.5163 380.3229 425.0593)">
			</image>
		</g>
	</g>
	<g id="YzKoOp.tif">
		
			<image overflow="visible" width="488" height="1005" id="Layer_0_2_" xlink:href="F1697ADE8970BEF6.png"  transform="matrix(-9.029966e-11 -0.6704 0.6704 -9.029966e-11 524.832 743.5325)">
		</image>
	</g>
</g>
</svg>
