<?xml version="1.0" encoding="utf-8"?>
<!-- Generator: Adobe Illustrator 18.0.0, SVG Export Plug-In . SVG Version: 6.00 Build 0)  -->
<!DOCTYPE svg PUBLIC "-//W3C//DTD SVG 1.1//EN" "http://www.w3.org/Graphics/SVG/1.1/DTD/svg11.dtd">
<svg version="1.1" id="Layer_1" xmlns="http://www.w3.org/2000/svg" xmlns:xlink="http://www.w3.org/1999/xlink" x="0px" y="0px"
	 viewBox="0 0 500 500" enable-background="new 0 0 500 500" xml:space="preserve">
<g>
	<path fill="#333333" d="M223.1,171.3l-43.4,13.3c-5.2,1.5-9.5,7-9.5,12.2v45.1v0.6c0,0-3.1-2.1-10.1-1.1
		c-10.2,1.5-18.6,9.4-18.6,17.7c0,8.3,8.4,13.4,18.6,11.9c10.2-1.5,17.9-9.2,17.9-17.4c0,0,0-35.4,0-39.1s4.4-5.2,4.4-5.2l38.3-12
		c0,0,4.3-1.5,4.3,2.5c0,4,0,31.3,0,31.3l0,0c0,0-3.9-2.3-10.9-1.4c-10.3,1.3-18.7,9-18.7,17.2s8.4,13.5,18.6,12.3
		c10.3-1.3,18.6-9,18.6-17.3V178C232.6,172.7,228.4,169.7,223.1,171.3z"/>
	<path d="M469.6,102.2c-6.6-3.5-15.2-3.5-21.8,1L356.6,162v-16.7c0-28.9-23.8-52.7-52.7-52.7h-233c-28.9,0.5-52.7,23.8-52.7,52.7
		v151.5c0,28.9,23.8,52.7,52.7,52.7h233c28.9,0,52.7-23.8,52.7-52.7V280l91.2,58.3c3.5,2,7.6,3.5,11.7,3.5c3.5,0,7.1-1,10.6-2.5
		c7.1-4.1,11.7-11.1,11.7-19.8V122C481.2,113.9,477.2,106.3,469.6,102.2z M345.5,296.2c0,22.8-18.2,41-41,41h-233
		c-22.8,0-41-18.2-41-41v-151c0-22.8,18.2-41,41-41h233c22.8,0,41,18.2,41,41V296.2z M469.1,319.5c0,4.1-2,7.6-5.6,9.1
		c-3,1.5-6.6,1.5-9.6-0.5l-97.3-62.3v-90.2l97.8-62.8c3-2,6.6-2,9.6-0.5c3.5,2,5.6,5.6,5.6,9.1L469.1,319.5L469.1,319.5z"/>
</g>
</svg>
